<?xml version="1.0" encoding="UTF-8"?>
<svg xmlns="http://www.w3.org/2000/svg" width="197" height="80" viewBox="0 0 197 80" fill="none">
  <g clip-path="url(#clip0_821_21569)">
    <path d="M168.667 34.6747C174.164 34.6747 177.553 38.0455 177.553 43.7265C177.553 44.4705 177.481 45.2863 177.446 45.3944H165.256L165.253 45.3974C165.17 45.3974 165.103 45.4723 165.111 45.5556C165.305 47.4598 167.085 48.8065 169.133 48.8065C170.62 48.8065 171.615 48.274 172.228 47.414C172.279 47.3391 172.366 47.2968 172.458 47.2968H176.978C177.159 47.297 177.293 47.4633 177.256 47.6386C177.222 47.8012 177.194 47.9101 177.188 47.9315C176.278 50.9144 173.48 53.3856 169.062 53.3857C164.172 53.3857 159.818 49.6576 159.818 43.9765C159.819 38.2957 164.065 34.6748 168.667 34.6747ZM131.729 34.6747C134.904 34.6747 136.297 36.4144 136.653 37.2314V35.4911C136.653 35.333 136.78 35.2061 136.938 35.206H141.612C141.77 35.206 141.896 35.3329 141.896 35.4911V52.5692C141.896 52.7273 141.77 52.8534 141.612 52.8534H136.941C136.783 52.8534 136.656 52.7244 136.656 52.5663C136.665 51.9766 136.685 50.6845 136.688 50.581C135.903 52.2838 134.12 53.3484 131.907 53.3485C126.698 53.3485 123.094 49.2318 123.094 43.9765C123.094 38.7213 126.482 34.6747 131.729 34.6747ZM11.1279 26.7011C13.1443 26.3502 15.1348 27.0808 16.4521 28.6601L25.4727 39.455L33.7686 36.0692C35.6124 35.3185 37.6436 35.7211 39.0674 37.122L39.0732 37.119C40.4971 38.5199 40.948 40.5571 40.252 42.4384L37.6318 49.5487C36.9443 51.4155 35.3763 52.8594 33.4375 53.2362C33.0782 53.3053 32.7159 53.3397 32.3623 53.3398C30.7486 53.3398 29.2234 52.6324 28.1533 51.3524L12.4395 32.5458C12.2698 32.3416 11.9417 32.3991 11.8496 32.6493L6.73535 46.4648C6.62897 46.7523 6.91056 47.0286 7.18945 46.914L13.4639 44.3534C14.9423 43.7497 16.6335 44.5268 17.1426 46.08C17.6055 47.4979 16.826 49.0308 15.4541 49.5917L7.25879 52.9374C5.74006 53.5587 3.99715 53.446 2.63086 52.537C0.680598 51.2398 -0.0615976 48.7974 0.726562 46.6689L6.7666 30.3534C7.48289 28.4176 9.11159 27.0549 11.1279 26.7011ZM78.0176 35.2069C78.1758 35.2069 78.3027 35.3338 78.3027 35.4921V52.5692C78.3027 52.7274 78.1758 52.8544 78.0176 52.8544H73.165C73.0069 52.8543 72.8799 52.7274 72.8799 52.5692V35.4921C72.8799 35.3339 73.0069 35.207 73.165 35.2069H78.0176ZM111.248 35.2069C111.371 35.2071 111.48 35.2845 111.518 35.4023L114.769 45.2372C114.812 45.3694 115.005 45.3666 115.042 45.2314L117.817 35.414C117.852 35.2902 117.965 35.2069 118.094 35.2069H122.809C123.001 35.207 123.139 35.391 123.081 35.5751L117.763 52.6532C117.725 52.7709 117.616 52.8544 117.489 52.8544H112.516C112.392 52.8542 112.286 52.776 112.246 52.661L108.593 41.8632C108.549 41.7338 108.366 41.7338 108.322 41.8632L104.737 52.6581C104.7 52.7732 104.591 52.8544 104.468 52.8544H99.3877C99.2644 52.8544 99.1518 52.7731 99.1143 52.6552L93.7266 35.578C93.6691 35.394 93.8076 35.21 94 35.2099H99.0332C99.1599 35.2099 99.273 35.2932 99.3105 35.4169L102.086 45.203C102.124 45.3379 102.313 45.3401 102.359 45.2079L105.645 35.4023C105.685 35.2874 105.791 35.2071 105.914 35.2069H111.248ZM61.6562 27.6815C61.7742 27.6816 61.8835 27.754 61.9238 27.8661L71.1318 52.4687L71.1396 52.4716C71.2085 52.6556 71.0712 52.8531 70.873 52.8534H65.3467C65.2259 52.8534 65.1164 52.7761 65.0762 52.664L63.3906 47.9296C63.3503 47.8145 63.241 47.7392 63.1201 47.7392H53.7461C53.6253 47.7392 53.5159 47.8173 53.4756 47.9296L51.79 52.664C51.7498 52.779 51.6404 52.8534 51.5195 52.8534H46.21C46.0115 52.8534 45.8734 52.6556 45.9424 52.4687L55.2529 27.8661C55.2961 27.754 55.4026 27.6816 55.5205 27.6815H61.6562ZM90.8301 35.0282C91.2642 35.0282 91.696 35.0745 92.0352 35.1493C92.165 35.178 92.2566 35.2926 92.2568 35.4247V40.1825C92.2568 40.358 92.0988 40.4934 91.9238 40.4618C91.4405 40.3756 90.9799 40.3524 90.5449 40.3524C88.3676 40.3526 86.4064 41.6299 86.4062 45.1444V52.5663C86.4062 52.7244 86.2795 52.8514 86.1221 52.8515H81.2686C81.1105 52.8513 80.9844 52.7243 80.9844 52.5663V35.4911C80.9845 35.3332 81.1106 35.2071 81.2686 35.2069H85.9434C86.1008 35.2069 86.2274 35.3331 86.2275 35.4911V37.5858C87.1567 35.5983 89.4034 35.0283 90.8301 35.0282ZM149.758 27.1474C149.916 27.1474 150.043 27.2734 150.043 27.4315V52.5663C150.043 52.7245 149.916 52.8515 149.758 52.8515H144.905C144.747 52.8515 144.62 52.7245 144.62 52.5663V27.4315C144.62 27.2734 144.747 27.1474 144.905 27.1474H149.758ZM157.753 27.1474C157.91 27.1476 158.037 27.2735 158.037 27.4315V52.5663C158.037 52.7244 157.91 52.8513 157.753 52.8515H152.899C152.742 52.8515 152.615 52.7245 152.615 52.5663V27.4315C152.615 27.2734 152.742 27.1474 152.899 27.1474H157.753ZM183.379 35.2069C183.474 35.207 183.565 35.2555 183.617 35.3358L186.589 39.8524C186.646 39.9386 186.773 39.9387 186.828 39.8524L189.729 35.3388C189.782 35.2584 189.874 35.2069 189.972 35.2069H195.33C195.563 35.2069 195.698 35.4654 195.563 35.6552L189.859 43.6728C189.791 43.7703 189.791 43.8994 189.859 43.997C191.726 46.6519 193.861 49.7185 195.776 52.4023C195.911 52.5891 195.776 52.8514 195.544 52.8515H189.899C189.805 52.8514 189.713 52.8021 189.661 52.7216L186.58 48.0595C186.523 47.9731 186.399 47.9731 186.342 48.0595C185.418 49.4286 184.213 51.3381 183.298 52.7245C183.246 52.805 183.157 52.8515 183.06 52.8515H177.798C177.568 52.8513 177.433 52.595 177.562 52.4052L183.244 44.2069C183.313 44.1093 183.31 43.9803 183.244 43.8827V43.8857L177.462 35.6523C177.33 35.4654 177.465 35.2072 177.694 35.2069H183.379ZM132.62 39.3603C130.302 39.3603 128.553 41.1007 128.553 44.0116C128.553 46.9224 130.371 48.6971 132.62 48.6972C134.798 48.6972 136.653 47.0663 136.653 44.0116C136.653 40.9568 134.938 39.3603 132.62 39.3603ZM34.2773 42.5468C34.3835 42.2593 34.1022 41.9835 33.8232 42.0985L29.2412 43.9687L31.9912 47.2587C32.1609 47.4629 32.4891 47.4054 32.5811 47.1552L34.2803 42.5448L34.2773 42.5468ZM58.6299 34.3095C58.5838 34.1829 58.4054 34.1829 58.3594 34.3095L55.46 42.4355C55.4286 42.5274 55.498 42.6249 55.5957 42.6249H61.3281C61.4258 42.6249 61.4951 42.5274 61.4639 42.4355L58.6299 34.3095ZM168.742 38.9345C166.55 38.9345 165.411 40.4672 165.228 41.7528C165.213 41.8363 165.281 41.914 165.368 41.914H172.153C172.24 41.9138 172.305 41.842 172.297 41.7587C172.164 40.4443 171.213 38.9345 168.742 38.9345ZM75.5557 26.6483C77.3391 26.6483 78.7666 28.0701 78.7666 29.8075C78.7665 31.5448 77.339 32.9657 75.5557 32.9657C73.7725 32.9655 72.4152 31.5447 72.415 29.8075C72.415 28.0702 73.8443 26.6485 75.5557 26.6483Z" fill="black"></path>
  </g>
  <defs>
    <clipPath id="clip0_821_21569">
      <rect width="195.833" height="80" fill="white" transform="translate(0.416016)"></rect>
    </clipPath>
  </defs>
</svg>
